<svg id="svg" class="path" style="background-color: rgb(255, 255, 255);"><path fill="#f2f2f2" stroke="#f2f2f2" d="M -420 1351 L -420 0 C -388.75 0, -351.25 -36, -320 -36 C -288.75 -36, -251.25 36, -220 36 C -188.75 36, -151.25 -36, -120 -36 C -88.75 -36, -51.25 36, -20 36 C 11.25 36, 48.75 -36, 80 -36 C 111.25 -36, 148.75 36, 180 36 C 211.25 36, 248.75 -36, 280 -36 C 311.25 -36, 348.75 36, 380 36 C 411.25 36, 448.75 -36, 480 -36 C 511.25 -36, 548.75 36, 580 36 C 611.25 36, 648.75 -36, 680 -36 C 711.25 -36, 748.75 36, 780 36 C 811.25 36, 848.75 -36, 880 -36 C 911.25 -36, 948.75 36, 980 36 L 1306 0 L 1306 1351 Z"/><path fill="#e5e5e5" stroke="#e5e5e5" d="M -420 1351 L -400 44 C -368.75 44, -331.25 8, -300 8 C -268.75 8, -231.25 80, -200 80 C -168.75 80, -131.25 8, -100 8 C -68.75 8, -31.25 80, 0 80 C 31.25 80, 68.75 8, 100 8 C 131.25 8, 168.75 80, 200 80 C 231.25 80, 268.75 8, 300 8 C 331.25 8, 368.75 80, 400 80 C 431.25 80, 468.75 8, 500 8 C 531.25 8, 568.75 80, 600 80 C 631.25 80, 668.75 8, 700 8 C 731.25 8, 768.75 80, 800 80 C 831.25 80, 868.75 8, 900 8 L 1306 44 L 1306 1351 Z"/><path fill="#d8d8d8" stroke="#d8d8d8" d="M -420 1351 L -380 88 C -348.75 88, -311.25 52, -280 52 C -248.75 52, -211.25 124, -180 124 C -148.75 124, -111.25 52, -80 52 C -48.75 52, -11.25 124, 20 124 C 51.25 124, 88.75 52, 120 52 C 151.25 52, 188.75 124, 220 124 C 251.25 124, 288.75 52, 320 52 C 351.25 52, 388.75 124, 420 124 C 451.25 124, 488.75 52, 520 52 C 551.25 52, 588.75 124, 620 124 C 651.25 124, 688.75 52, 720 52 C 751.25 52, 788.75 124, 820 124 C 851.25 124, 888.75 52, 920 52 L 1306 88 L 1306 1351 Z"/><path fill="#cbcbcb" stroke="#cbcbcb" d="M -420 1351 L -360 133 C -328.75 133, -291.25 97, -260 97 C -228.75 97, -191.25 169, -160 169 C -128.75 169, -91.25 97, -60 97 C -28.75 97, 8.75 169, 40 169 C 71.25 169, 108.75 97, 140 97 C 171.25 97, 208.75 169, 240 169 C 271.25 169, 308.75 97, 340 97 C 371.25 97, 408.75 169, 440 169 C 471.25 169, 508.75 97, 540 97 C 571.25 97, 608.75 169, 640 169 C 671.25 169, 708.75 97, 740 97 C 771.25 97, 808.75 169, 840 169 C 871.25 169, 908.75 97, 940 97 L 1306 133 L 1306 1351 Z"/><path fill="#bfbfbf" stroke="#bfbfbf" d="M -420 1351 L -340 177 C -308.75 177, -271.25 141, -240 141 C -208.75 141, -171.25 213, -140 213 C -108.75 213, -71.25 141, -40 141 C -8.75 141, 28.75 213, 60 213 C 91.25 213, 128.75 141, 160 141 C 191.25 141, 228.75 213, 260 213 C 291.25 213, 328.75 141, 360 141 C 391.25 141, 428.75 213, 460 213 C 491.25 213, 528.75 141, 560 141 C 591.25 141, 628.75 213, 660 213 C 691.25 213, 728.75 141, 760 141 C 791.25 141, 828.75 213, 860 213 C 891.25 213, 928.75 141, 960 141 L 1306 177 L 1306 1351 Z"/><path fill="#b2b2b2" stroke="#b2b2b2" d="M -420 1351 L -320 221 C -288.75 221, -251.25 185, -220 185 C -188.75 185, -151.25 257, -120 257 C -88.75 257, -51.25 185, -20 185 C 11.25 185, 48.75 257, 80 257 C 111.25 257, 148.75 185, 180 185 C 211.25 185, 248.75 257, 280 257 C 311.25 257, 348.75 185, 380 185 C 411.25 185, 448.75 257, 480 257 C 511.25 257, 548.75 185, 580 185 C 611.25 185, 648.75 257, 680 257 C 711.25 257, 748.75 185, 780 185 C 811.25 185, 848.75 257, 880 257 C 911.25 257, 948.75 185, 980 185 L 1306 221 L 1306 1351 Z"/><path fill="#a6a6a6" stroke="#a6a6a6" d="M -420 1351 L -300 266 C -268.75 266, -231.25 230, -200 230 C -168.75 230, -131.25 302, -100 302 C -68.75 302, -31.25 230, 0 230 C 31.25 230, 68.75 302, 100 302 C 131.25 302, 168.75 230, 200 230 C 231.25 230, 268.75 302, 300 302 C 331.25 302, 368.75 230, 400 230 C 431.25 230, 468.75 302, 500 302 C 531.25 302, 568.75 230, 600 230 C 631.25 230, 668.75 302, 700 302 C 731.25 302, 768.75 230, 800 230 C 831.25 230, 868.75 302, 900 302 L 1306 266 L 1306 1351 Z"/><path fill="#9a9a9a" stroke="#9a9a9a" d="M -420 1351 L -280 310 C -248.75 310, -211.25 274, -180 274 C -148.75 274, -111.25 346, -80 346 C -48.75 346, -11.25 274, 20 274 C 51.25 274, 88.75 346, 120 346 C 151.25 346, 188.75 274, 220 274 C 251.25 274, 288.75 346, 320 346 C 351.25 346, 388.75 274, 420 274 C 451.25 274, 488.75 346, 520 346 C 551.25 346, 588.75 274, 620 274 C 651.25 274, 688.75 346, 720 346 C 751.25 346, 788.75 274, 820 274 C 851.25 274, 888.75 346, 920 346 L 1306 310 L 1306 1351 Z"/><path fill="#8e8e8e" stroke="#8e8e8e" d="M -420 1351 L -260 354 C -228.75 354, -191.25 318, -160 318 C -128.75 318, -91.25 390, -60 390 C -28.75 390, 8.75 318, 40 318 C 71.25 318, 108.75 390, 140 390 C 171.25 390, 208.75 318, 240 318 C 271.25 318, 308.75 390, 340 390 C 371.25 390, 408.75 318, 440 318 C 471.25 318, 508.75 390, 540 390 C 571.25 390, 608.75 318, 640 318 C 671.25 318, 708.75 390, 740 390 C 771.25 390, 808.75 318, 840 318 C 871.25 318, 908.75 390, 940 390 L 1306 354 L 1306 1351 Z"/><path fill="#828282" stroke="#828282" d="M -420 1351 L -240 399 C -208.75 399, -171.25 363, -140 363 C -108.75 363, -71.25 435, -40 435 C -8.75 435, 28.75 363, 60 363 C 91.25 363, 128.75 435, 160 435 C 191.25 435, 228.75 363, 260 363 C 291.25 363, 328.75 435, 360 435 C 391.25 435, 428.75 363, 460 363 C 491.25 363, 528.75 435, 560 435 C 591.25 435, 628.75 363, 660 363 C 691.25 363, 728.75 435, 760 435 C 791.25 435, 828.75 363, 860 363 C 891.25 363, 928.75 435, 960 435 L 1306 399 L 1306 1351 Z"/><path fill="#777777" stroke="#777777" d="M -420 1351 L -220 443 C -188.75 443, -151.25 407, -120 407 C -88.75 407, -51.25 479, -20 479 C 11.25 479, 48.75 407, 80 407 C 111.25 407, 148.75 479, 180 479 C 211.25 479, 248.75 407, 280 407 C 311.25 407, 348.75 479, 380 479 C 411.25 479, 448.75 407, 480 407 C 511.25 407, 548.75 479, 580 479 C 611.25 479, 648.75 407, 680 407 C 711.25 407, 748.75 479, 780 479 C 811.25 479, 848.75 407, 880 407 C 911.25 407, 948.75 479, 980 479 L 1306 443 L 1306 1351 Z"/><path fill="#6c6c6c" stroke="#6c6c6c" d="M -420 1351 L -200 487 C -168.75 487, -131.25 451, -100 451 C -68.75 451, -31.25 523, 0 523 C 31.25 523, 68.75 451, 100 451 C 131.25 451, 168.75 523, 200 523 C 231.25 523, 268.75 451, 300 451 C 331.25 451, 368.75 523, 400 523 C 431.25 523, 468.75 451, 500 451 C 531.25 451, 568.75 523, 600 523 C 631.25 523, 668.75 451, 700 451 C 731.25 451, 768.75 523, 800 523 C 831.25 523, 868.75 451, 900 451 L 1306 487 L 1306 1351 Z"/><path fill="#606060" stroke="#606060" d="M -420 1351 L -180 532 C -148.75 532, -111.25 496, -80 496 C -48.75 496, -11.25 568, 20 568 C 51.25 568, 88.75 496, 120 496 C 151.25 496, 188.75 568, 220 568 C 251.25 568, 288.75 496, 320 496 C 351.25 496, 388.75 568, 420 568 C 451.25 568, 488.75 496, 520 496 C 551.25 496, 588.75 568, 620 568 C 651.25 568, 688.75 496, 720 496 C 751.25 496, 788.75 568, 820 568 C 851.25 568, 888.75 496, 920 496 L 1306 532 L 1306 1351 Z"/><path fill="#565656" stroke="#565656" d="M -420 1351 L -160 576 C -128.75 576, -91.25 540, -60 540 C -28.75 540, 8.75 612, 40 612 C 71.25 612, 108.75 540, 140 540 C 171.25 540, 208.75 612, 240 612 C 271.25 612, 308.75 540, 340 540 C 371.25 540, 408.75 612, 440 612 C 471.25 612, 508.75 540, 540 540 C 571.25 540, 608.75 612, 640 612 C 671.25 612, 708.75 540, 740 540 C 771.25 540, 808.75 612, 840 612 C 871.25 612, 908.75 540, 940 540 L 1306 576 L 1306 1351 Z"/><path fill="#4b4b4b" stroke="#4b4b4b" d="M -420 1351 L -140 620 C -108.75 620, -71.25 584, -40 584 C -8.75 584, 28.75 656, 60 656 C 91.25 656, 128.75 584, 160 584 C 191.25 584, 228.75 656, 260 656 C 291.25 656, 328.75 584, 360 584 C 391.25 584, 428.75 656, 460 656 C 491.25 656, 528.75 584, 560 584 C 591.25 584, 628.75 656, 660 656 C 691.25 656, 728.75 584, 760 584 C 791.25 584, 828.75 656, 860 656 C 891.25 656, 928.75 584, 960 584 L 1306 620 L 1306 1351 Z"/><path fill="#404040" stroke="#404040" d="M -420 1351 L -120 665 C -88.75 665, -51.25 629, -20 629 C 11.25 629, 48.75 701, 80 701 C 111.25 701, 148.75 629, 180 629 C 211.25 629, 248.75 701, 280 701 C 311.25 701, 348.75 629, 380 629 C 411.25 629, 448.75 701, 480 701 C 511.25 701, 548.75 629, 580 629 C 611.25 629, 648.75 701, 680 701 C 711.25 701, 748.75 629, 780 629 C 811.25 629, 848.75 701, 880 701 C 911.25 701, 948.75 629, 980 629 L 1306 665 L 1306 1351 Z"/><path fill="#363636" stroke="#363636" d="M -420 1351 L -100 709 C -68.75 709, -31.25 673, 0 673 C 31.25 673, 68.75 745, 100 745 C 131.25 745, 168.75 673, 200 673 C 231.25 673, 268.75 745, 300 745 C 331.25 745, 368.75 673, 400 673 C 431.25 673, 468.75 745, 500 745 C 531.25 745, 568.75 673, 600 673 C 631.25 673, 668.75 745, 700 745 C 731.25 745, 768.75 673, 800 673 C 831.25 673, 868.75 745, 900 745 L 1306 709 L 1306 1351 Z"/><path fill="#2c2c2c" stroke="#2c2c2c" d="M -420 1351 L -80 753 C -48.75 753, -11.25 717, 20 717 C 51.25 717, 88.75 789, 120 789 C 151.25 789, 188.75 717, 220 717 C 251.25 717, 288.75 789, 320 789 C 351.25 789, 388.75 717, 420 717 C 451.25 717, 488.75 789, 520 789 C 551.25 789, 588.75 717, 620 717 C 651.25 717, 688.75 789, 720 789 C 751.25 789, 788.75 717, 820 717 C 851.25 717, 888.75 789, 920 789 L 1306 753 L 1306 1351 Z"/><path fill="#232323" stroke="#232323" d="M -420 1351 L -60 798 C -28.75 798, 8.75 762, 40 762 C 71.25 762, 108.75 834, 140 834 C 171.25 834, 208.75 762, 240 762 C 271.25 762, 308.75 834, 340 834 C 371.25 834, 408.75 762, 440 762 C 471.25 762, 508.75 834, 540 834 C 571.25 834, 608.75 762, 640 762 C 671.25 762, 708.75 834, 740 834 C 771.25 834, 808.75 762, 840 762 C 871.25 762, 908.75 834, 940 834 L 1306 798 L 1306 1351 Z"/><path fill="#1a1a1a" stroke="#1a1a1a" d="M -420 1351 L -40 842 C -8.75 842, 28.75 806, 60 806 C 91.25 806, 128.75 878, 160 878 C 191.25 878, 228.75 806, 260 806 C 291.25 806, 328.75 878, 360 878 C 391.25 878, 428.75 806, 460 806 C 491.25 806, 528.75 878, 560 878 C 591.25 878, 628.75 806, 660 806 C 691.25 806, 728.75 878, 760 878 C 791.25 878, 828.75 806, 860 806 C 891.25 806, 928.75 878, 960 878 L 1306 842 L 1306 1351 Z"/><path fill="#101010" stroke="#101010" d="M -420 1351 L -20 886 C 11.25 886, 48.75 850, 80 850 C 111.25 850, 148.75 922, 180 922 C 211.25 922, 248.75 850, 280 850 C 311.25 850, 348.75 922, 380 922 C 411.25 922, 448.75 850, 480 850 C 511.25 850, 548.75 922, 580 922 C 611.25 922, 648.75 850, 680 850 C 711.25 850, 748.75 922, 780 922 C 811.25 922, 848.75 850, 880 850 C 911.25 850, 948.75 922, 980 922 L 1306 886 L 1306 1351 Z"/><path fill="#000000" stroke="#000000" d="M -420 1351 L 0 931 C 31.25 931, 68.75 895, 100 895 C 131.25 895, 168.75 967, 200 967 C 231.25 967, 268.75 895, 300 895 C 331.25 895, 368.75 967, 400 967 C 431.25 967, 468.75 895, 500 895 C 531.25 895, 568.75 967, 600 967 C 631.25 967, 668.75 895, 700 895 C 731.25 895, 768.75 967, 800 967 C 831.25 967, 868.75 895, 900 895 L 1306 931 L 1306 1351 Z"/></svg>