<svg id="visual" viewBox="0 0 900 600" width="900" height="600" xmlns="http://www.w3.org/2000/svg" xmlns:xlink="http://www.w3.org/1999/xlink" version="1.1"><path d="M0 13L10.7 16C21.3 19 42.7 25 64.2 25C85.7 25 107.3 19 128.8 21C150.3 23 171.7 33 193 35C214.3 37 235.7 31 257 27C278.3 23 299.7 21 321.2 21C342.7 21 364.3 23 385.8 26C407.3 29 428.7 33 450 31C471.3 29 492.7 21 514.2 20C535.7 19 557.3 25 578.8 27C600.3 29 621.7 27 643 26C664.3 25 685.7 25 707 27C728.3 29 749.7 33 771.2 34C792.7 35 814.3 33 835.8 31C857.3 29 878.7 27 889.3 26L900 25L900 0L889.3 0C878.7 0 857.3 0 835.8 0C814.3 0 792.7 0 771.2 0C749.7 0 728.3 0 707 0C685.7 0 664.3 0 643 0C621.7 0 600.3 0 578.8 0C557.3 0 535.7 0 514.2 0C492.7 0 471.3 0 450 0C428.7 0 407.3 0 385.8 0C364.3 0 342.7 0 321.2 0C299.7 0 278.3 0 257 0C235.7 0 214.3 0 193 0C171.7 0 150.3 0 128.8 0C107.3 0 85.7 0 64.2 0C42.7 0 21.3 0 10.7 0L0 0Z" fill="#222222"></path><path d="M0 49L10.7 54C21.3 59 42.7 69 64.2 68C85.7 67 107.3 55 128.8 53C150.3 51 171.7 59 193 65C214.3 71 235.7 75 257 72C278.3 69 299.7 59 321.2 55C342.7 51 364.3 53 385.8 62C407.3 71 428.7 87 450 89C471.3 91 492.7 79 514.2 71C535.7 63 557.3 59 578.8 56C600.3 53 621.7 51 643 51C664.3 51 685.7 53 707 61C728.3 69 749.7 83 771.2 85C792.7 87 814.3 77 835.8 74C857.3 71 878.7 75 889.3 77L900 79L900 23L889.3 24C878.7 25 857.3 27 835.8 29C814.3 31 792.7 33 771.2 32C749.7 31 728.3 27 707 25C685.7 23 664.3 23 643 24C621.7 25 600.3 27 578.8 25C557.3 23 535.7 17 514.2 18C492.7 19 471.3 27 450 29C428.7 31 407.3 27 385.8 24C364.3 21 342.7 19 321.2 19C299.7 19 278.3 21 257 25C235.7 29 214.3 35 193 33C171.7 31 150.3 21 128.8 19C107.3 17 85.7 23 64.2 23C42.7 23 21.3 17 10.7 14L0 11Z" fill="#242424"></path><path d="M0 61L10.7 71C21.3 81 42.7 101 64.2 102C85.7 103 107.3 85 128.8 79C150.3 73 171.7 79 193 88C214.3 97 235.7 109 257 109C278.3 109 299.7 97 321.2 91C342.7 85 364.3 85 385.8 92C407.3 99 428.7 113 450 112C471.3 111 492.7 95 514.2 90C535.7 85 557.3 91 578.8 90C600.3 89 621.7 81 643 80C664.3 79 685.7 85 707 91C728.3 97 749.7 103 771.2 101C792.7 99 814.3 89 835.8 88C857.3 87 878.7 95 889.3 99L900 103L900 77L889.3 75C878.7 73 857.3 69 835.8 72C814.3 75 792.7 85 771.2 83C749.7 81 728.3 67 707 59C685.7 51 664.3 49 643 49C621.7 49 600.3 51 578.8 54C557.3 57 535.7 61 514.2 69C492.7 77 471.3 89 450 87C428.7 85 407.3 69 385.8 60C364.3 51 342.7 49 321.2 53C299.7 57 278.3 67 257 70C235.7 73 214.3 69 193 63C171.7 57 150.3 49 128.8 51C107.3 53 85.7 65 64.2 66C42.7 67 21.3 57 10.7 52L0 47Z" fill="#262626"></path><path d="M0 115L10.7 123C21.3 131 42.7 147 64.2 146C85.7 145 107.3 127 128.8 118C150.3 109 171.7 109 193 116C214.3 123 235.7 137 257 136C278.3 135 299.7 119 321.2 117C342.7 115 364.3 127 385.8 137C407.3 147 428.7 155 450 147C471.3 139 492.7 115 514.2 111C535.7 107 557.3 123 578.8 126C600.3 129 621.7 119 643 113C664.3 107 685.7 105 707 107C728.3 109 749.7 115 771.2 116C792.7 117 814.3 113 835.8 116C857.3 119 878.7 129 889.3 134L900 139L900 101L889.3 97C878.7 93 857.3 85 835.8 86C814.3 87 792.7 97 771.2 99C749.7 101 728.3 95 707 89C685.7 83 664.3 77 643 78C621.7 79 600.3 87 578.8 88C557.3 89 535.7 83 514.2 88C492.7 93 471.3 109 450 110C428.7 111 407.3 97 385.8 90C364.3 83 342.7 83 321.2 89C299.7 95 278.3 107 257 107C235.7 107 214.3 95 193 86C171.7 77 150.3 71 128.8 77C107.3 83 85.7 101 64.2 100C42.7 99 21.3 79 10.7 69L0 59Z" fill="#282828"></path><path d="M0 259L10.7 265C21.3 271 42.7 283 64.2 273C85.7 263 107.3 231 128.8 215C150.3 199 171.7 199 193 212C214.3 225 235.7 251 257 244C278.3 237 299.7 197 321.2 195C342.7 193 364.3 229 385.8 256C407.3 283 428.7 301 450 288C471.3 275 492.7 231 514.2 222C535.7 213 557.3 239 578.8 234C600.3 229 621.7 193 643 186C664.3 179 685.7 201 707 217C728.3 233 749.7 243 771.2 254C792.7 265 814.3 277 835.8 272C857.3 267 878.7 245 889.3 234L900 223L900 137L889.3 132C878.7 127 857.3 117 835.8 114C814.3 111 792.7 115 771.2 114C749.7 113 728.3 107 707 105C685.7 103 664.3 105 643 111C621.7 117 600.3 127 578.8 124C557.3 121 535.7 105 514.2 109C492.7 113 471.3 137 450 145C428.7 153 407.3 145 385.8 135C364.3 125 342.7 113 321.2 115C299.7 117 278.3 133 257 134C235.7 135 214.3 121 193 114C171.7 107 150.3 107 128.8 116C107.3 125 85.7 143 64.2 144C42.7 145 21.3 129 10.7 121L0 113Z" fill="#2a2a2a"></path><path d="M0 289L10.7 292C21.3 295 42.7 301 64.2 290C85.7 279 107.3 251 128.8 236C150.3 221 171.7 219 193 237C214.3 255 235.7 293 257 288C278.3 283 299.7 235 321.2 227C342.7 219 364.3 251 385.8 277C407.3 303 428.7 323 450 309C471.3 295 492.7 247 514.2 240C535.7 233 557.3 267 578.8 266C600.3 265 621.7 229 643 221C664.3 213 685.7 233 707 250C728.3 267 749.7 281 771.2 291C792.7 301 814.3 307 835.8 302C857.3 297 878.7 281 889.3 273L900 265L900 221L889.3 232C878.7 243 857.3 265 835.8 270C814.3 275 792.7 263 771.2 252C749.7 241 728.3 231 707 215C685.7 199 664.3 177 643 184C621.7 191 600.3 227 578.8 232C557.3 237 535.7 211 514.2 220C492.7 229 471.3 273 450 286C428.7 299 407.3 281 385.8 254C364.3 227 342.7 191 321.2 193C299.7 195 278.3 235 257 242C235.7 249 214.3 223 193 210C171.7 197 150.3 197 128.8 213C107.3 229 85.7 261 64.2 271C42.7 281 21.3 269 10.7 263L0 257Z" fill="#2c2c2c"></path><path d="M0 421L10.7 421C21.3 421 42.7 421 64.2 423C85.7 425 107.3 429 128.8 429C150.3 429 171.7 425 193 422C214.3 419 235.7 417 257 402C278.3 387 299.7 359 321.2 351C342.7 343 364.3 355 385.8 367C407.3 379 428.7 391 450 395C471.3 399 492.7 395 514.2 391C535.7 387 557.3 383 578.8 376C600.3 369 621.7 359 643 353C664.3 347 685.7 345 707 356C728.3 367 749.7 391 771.2 393C792.7 395 814.3 375 835.8 367C857.3 359 878.7 363 889.3 365L900 367L900 263L889.3 271C878.7 279 857.3 295 835.8 300C814.3 305 792.7 299 771.2 289C749.7 279 728.3 265 707 248C685.7 231 664.3 211 643 219C621.7 227 600.3 263 578.8 264C557.3 265 535.7 231 514.2 238C492.7 245 471.3 293 450 307C428.7 321 407.3 301 385.8 275C364.3 249 342.7 217 321.2 225C299.7 233 278.3 281 257 286C235.7 291 214.3 253 193 235C171.7 217 150.3 219 128.8 234C107.3 249 85.7 277 64.2 288C42.7 299 21.3 293 10.7 290L0 287Z" fill="#333333"></path><path d="M0 499L10.7 496C21.3 493 42.7 487 64.2 486C85.7 485 107.3 489 128.8 486C150.3 483 171.7 473 193 466C214.3 459 235.7 455 257 443C278.3 431 299.7 411 321.2 412C342.7 413 364.3 435 385.8 450C407.3 465 428.7 473 450 466C471.3 459 492.7 437 514.2 428C535.7 419 557.3 423 578.8 419C600.3 415 621.7 403 643 403C664.3 403 685.7 415 707 427C728.3 439 749.7 451 771.2 447C792.7 443 814.3 423 835.8 417C857.3 411 878.7 419 889.3 423L900 427L900 365L889.3 363C878.7 361 857.3 357 835.8 365C814.3 373 792.7 393 771.2 391C749.7 389 728.3 365 707 354C685.7 343 664.3 345 643 351C621.7 357 600.3 367 578.8 374C557.3 381 535.7 385 514.2 389C492.7 393 471.3 397 450 393C428.7 389 407.3 377 385.8 365C364.3 353 342.7 341 321.2 349C299.7 357 278.3 385 257 400C235.7 415 214.3 417 193 420C171.7 423 150.3 427 128.8 427C107.3 427 85.7 423 64.2 421C42.7 419 21.3 419 10.7 419L0 419Z" fill="#3a3a3a"></path><path d="M0 559L10.7 551C21.3 543 42.7 527 64.2 521C85.7 515 107.3 519 128.8 523C150.3 527 171.7 531 193 522C214.3 513 235.7 491 257 477C278.3 463 299.7 457 321.2 458C342.7 459 364.3 467 385.8 482C407.3 497 428.7 519 450 522C471.3 525 492.7 509 514.2 499C535.7 489 557.3 485 578.8 476C600.3 467 621.7 453 643 448C664.3 443 685.7 447 707 463C728.3 479 749.7 507 771.2 507C792.7 507 814.3 479 835.8 469C857.3 459 878.7 467 889.3 471L900 475L900 425L889.3 421C878.7 417 857.3 409 835.8 415C814.3 421 792.7 441 771.2 445C749.7 449 728.3 437 707 425C685.7 413 664.3 401 643 401C621.7 401 600.3 413 578.8 417C557.3 421 535.7 417 514.2 426C492.7 435 471.3 457 450 464C428.7 471 407.3 463 385.8 448C364.3 433 342.7 411 321.2 410C299.7 409 278.3 429 257 441C235.7 453 214.3 457 193 464C171.7 471 150.3 481 128.8 484C107.3 487 85.7 483 64.2 484C42.7 485 21.3 491 10.7 494L0 497Z" fill="#414141"></path><path d="M0 589L10.7 588C21.3 587 42.7 585 64.2 580C85.7 575 107.3 567 128.8 567C150.3 567 171.7 575 193 576C214.3 577 235.7 571 257 568C278.3 565 299.7 565 321.2 569C342.7 573 364.3 581 385.8 582C407.3 583 428.7 577 450 574C471.3 571 492.7 571 514.2 570C535.7 569 557.3 567 578.8 564C600.3 561 621.7 557 643 559C664.3 561 685.7 569 707 571C728.3 573 749.7 569 771.2 566C792.7 563 814.3 561 835.8 560C857.3 559 878.7 559 889.3 559L900 559L900 473L889.3 469C878.7 465 857.3 457 835.8 467C814.3 477 792.7 505 771.2 505C749.7 505 728.3 477 707 461C685.7 445 664.3 441 643 446C621.7 451 600.3 465 578.8 474C557.3 483 535.7 487 514.2 497C492.7 507 471.3 523 450 520C428.7 517 407.3 495 385.8 480C364.3 465 342.7 457 321.2 456C299.7 455 278.3 461 257 475C235.7 489 214.3 511 193 520C171.7 529 150.3 525 128.8 521C107.3 517 85.7 513 64.2 519C42.7 525 21.3 541 10.7 549L0 557Z" fill="#484848"></path><path d="M0 601L10.7 601C21.3 601 42.7 601 64.2 601C85.7 601 107.3 601 128.8 601C150.3 601 171.7 601 193 601C214.3 601 235.7 601 257 601C278.3 601 299.7 601 321.2 601C342.7 601 364.3 601 385.8 601C407.3 601 428.7 601 450 601C471.3 601 492.7 601 514.2 601C535.7 601 557.3 601 578.8 601C600.3 601 621.7 601 643 601C664.3 601 685.7 601 707 601C728.3 601 749.7 601 771.2 601C792.7 601 814.3 601 835.8 601C857.3 601 878.7 601 889.3 601L900 601L900 557L889.3 557C878.7 557 857.3 557 835.8 558C814.3 559 792.7 561 771.2 564C749.7 567 728.3 571 707 569C685.7 567 664.3 559 643 557C621.7 555 600.3 559 578.8 562C557.3 565 535.7 567 514.2 568C492.7 569 471.3 569 450 572C428.7 575 407.3 581 385.8 580C364.3 579 342.7 571 321.2 567C299.7 563 278.3 563 257 566C235.7 569 214.3 575 193 574C171.7 573 150.3 565 128.8 565C107.3 565 85.7 573 64.2 578C42.7 583 21.3 585 10.7 586L0 587Z" fill="#4f4f4f"></path></svg>